<svg version="1.0" xmlns="http://www.w3.org/2000/svg"
 viewBox="0 0 920.000000 341.000000"
 preserveAspectRatio="xMidYMid meet">
        <g transform="translate(0.000000,341.000000) scale(0.100000,-0.100000)"
stroke="none">
                <path d="M7353 3399 c-259 -30 -508 -121 -733 -266 -576 -373 -848 -1084 -699
-1824 100 -498 435 -928 892 -1144 404 -191 868 -218 1298 -75 527 175 927
627 1056 1195 21 92 26 145 30 328 l5 217 -901 0 -901 0 0 -175 0 -175 665 0
665 0 0 -32 c0 -48 -35 -205 -65 -293 -99 -295 -332 -553 -603 -665 -302 -126
-702 -126 -1003 -1 -329 137 -568 412 -673 773 -75 260 -75 625 0 886 54 186
168 384 299 517 375 383 1026 465 1488 188 140 -84 283 -233 363 -377 20 -37
42 -70 48 -72 6 -2 125 -3 263 -2 l252 3 -38 85 c-257 578 -833 926 -1520 919
-64 -1 -148 -5 -188 -10z"/>
                <path d="M4050 1700 l0 -1670 805 0 805 0 0 175 0 175 -585 0 -585 0 0 1495 0
1495 -220 0 -220 0 0 -1670z"/>
                <path d="M0 1690 l0 -1660 220 0 220 0 2 1230 3 1230 550 -1230 549 -1230 155
2 156 3 541 1214 c298 668 546 1222 552 1230 8 11 11 -344 11 -1216 l1 -1233
215 0 215 0 0 1660 0 1660 -232 -2 -233 -3 -606 -1354 c-334 -745 -610 -1361
-615 -1368 -6 -9 -206 426 -621 1354 l-612 1368 -235 3 -236 2 0 -1660z"/>
        </g>
</svg>